<svg width="35" height="32" viewBox="0 0 35 32" fill="none" xmlns="http://www.w3.org/2000/svg">
<g clip-path="url(#clip0_141_2)">
<path d="M17.5 0C7.83501 0 0 7.16344 0 16C0 24.8366 7.83501 32 17.5 32C27.165 32 35 24.8366 35 16C35 7.16344 27.165 0 17.5 0ZM23.3876 4.99797C23.9007 5.00168 24.3987 5.17469 24.775 5.51875L27.6873 8.18035C28.4923 8.91637 28.4371 10.1565 27.5664 10.9544C26.6936 11.7524 25.3351 11.7998 24.5323 11.0659L21.6212 8.40427C20.8162 7.67027 20.8725 6.42621 21.7431 5.63021C22.2057 5.20624 22.8062 4.99379 23.3876 4.99797ZM18.5893 8.51469L24.4127 13.8379L14.949 22.4883L9.12567 17.1641L18.5893 8.51469ZM7.61413 18.1722L13.7566 23.7883L6.07603 25.1945L7.61413 18.1722Z" fill="#777777"/>
</g>
<defs>
<clipPath id="clip0_141_2">
<rect width="35" height="32" fill="white"/>
</clipPath>
</defs>
</svg>
