<svg xmlns="http://www.w3.org/2000/svg" width="24" height="24" preserveAspectRatio="xMidYMid meet" viewBox="0 0 24 24"><g fill="none"><path d="M0 0h24v24H0z"/><path fill="white" d="M20 4a2 2 0 0 1 1.995 1.85L22 6v12a2 2 0 0 1-1.85 1.995L20 20H4a2 2 0 0 1-1.995-1.85L2 18v-1h2v1h16V7.414l-6.94 6.94a1.5 1.5 0 0 1-2.007.103l-.114-.103L4 7.414V8H2V6a2 2 0 0 1 1.85-1.995L4 4h16ZM6 13a1 1 0 1 1 0 2H1a1 1 0 1 1 0-2h5Zm12.586-7H5.414L12 12.586L18.586 6ZM5 10a1 1 0 0 1 .117 1.993L5 12H2a1 1 0 0 1-.117-1.993L2 10h3Z"/></g></svg>