<svg width="41" height="36" viewBox="0 0 41 36" fill="none" xmlns="http://www.w3.org/2000/svg">
<path d="M27.8672 16.875H21.7812V11.5312C21.7812 11.3766 21.6371 11.25 21.4609 11.25H19.5391C19.3629 11.25 19.2188 11.3766 19.2188 11.5312V16.875H13.1328C12.9566 16.875 12.8125 17.0016 12.8125 17.1562V18.8438C12.8125 18.9984 12.9566 19.125 13.1328 19.125H19.2188V24.4688C19.2188 24.6234 19.3629 24.75 19.5391 24.75H21.4609C21.6371 24.75 21.7812 24.6234 21.7812 24.4688V19.125H27.8672C28.0434 19.125 28.1875 18.9984 28.1875 18.8438V17.1562C28.1875 17.0016 28.0434 16.875 27.8672 16.875Z" fill="#735353"/>
<path d="M20.5 2.25C10.5943 2.25 2.5625 9.30234 2.5625 18C2.5625 26.6977 10.5943 33.75 20.5 33.75C30.4057 33.75 38.4375 26.6977 38.4375 18C38.4375 9.30234 30.4057 2.25 20.5 2.25ZM20.5 31.0781C12.276 31.0781 5.60547 25.2211 5.60547 18C5.60547 10.7789 12.276 4.92188 20.5 4.92188C28.724 4.92188 35.3945 10.7789 35.3945 18C35.3945 25.2211 28.724 31.0781 20.5 31.0781Z" fill="#735353"/>
</svg>
