<svg width="40" height="36" viewBox="0 0 40 36" fill="none" xmlns="http://www.w3.org/2000/svg">
<path fill-rule="evenodd" clip-rule="evenodd" d="M2.33867 18.0001C2.33867 13.7844 4.19941 9.74138 7.51155 6.76046C10.8237 3.77953 15.3159 2.10486 20 2.10486C24.6841 2.10486 29.1763 3.77953 32.4885 6.76046C35.8006 9.74138 37.6613 13.7844 37.6613 18.0001C37.6613 22.2157 35.8006 26.2587 32.4885 29.2397C29.1763 32.2206 24.6841 33.8953 20 33.8953C15.3159 33.8953 10.8237 32.2206 7.51155 29.2397C4.19941 26.2587 2.33867 22.2157 2.33867 18.0001V18.0001ZM20 4.38486C17.0678 4.38495 14.1988 5.15198 11.742 6.59263C9.28528 8.03328 7.34668 10.0855 6.16205 12.4995C4.97743 14.9136 4.59786 17.5854 5.06951 20.1901C5.54115 22.7947 6.84369 25.2198 8.81867 27.1705C10.0177 25.4802 11.6707 24.0893 13.625 23.1262C15.5793 22.163 17.7719 21.6588 20 21.6601C22.2282 21.6586 24.4208 22.1627 26.3752 23.1259C28.3295 24.089 29.9825 25.4801 31.1813 27.1705C33.1563 25.2198 34.4589 22.7947 34.9305 20.1901C35.4021 17.5854 35.0226 14.9136 33.838 12.4995C32.6533 10.0855 30.7147 8.03328 28.258 6.59263C25.8012 5.15198 22.9322 4.38495 20 4.38486V4.38486ZM29.2853 28.7497C28.3417 27.2859 26.9872 26.0712 25.3575 25.227C23.7278 24.3829 21.8803 23.9391 20 23.9401C18.1197 23.9391 16.2722 24.3829 14.6425 25.227C13.0128 26.0712 11.6583 27.2859 10.7147 28.7497C13.3674 30.6113 16.6362 31.6201 20 31.6153C23.4987 31.6153 26.72 30.5449 29.2853 28.7497ZM13.7333 15.6121C13.7333 14.1162 14.3936 12.6817 15.5688 11.624C16.744 10.5663 18.338 9.97206 20 9.97206C21.662 9.97206 23.256 10.5663 24.4312 11.624C25.6064 12.6817 26.2667 14.1162 26.2667 15.6121C26.2667 17.1079 25.6064 18.5424 24.4312 19.6001C23.256 20.6578 21.662 21.2521 20 21.2521C18.338 21.2521 16.744 20.6578 15.5688 19.6001C14.3936 18.5424 13.7333 17.1079 13.7333 15.6121V15.6121ZM20 12.2521C19.5097 12.2521 19.0243 12.339 18.5713 12.5078C18.1184 12.6767 17.7068 12.9242 17.3601 13.2362C17.0135 13.5482 16.7385 13.9186 16.5509 14.3262C16.3632 14.7339 16.2667 15.1708 16.2667 15.6121C16.2667 16.0533 16.3632 16.4902 16.5509 16.8979C16.7385 17.3055 17.0135 17.6759 17.3601 17.9879C17.7068 18.2999 18.1184 18.5474 18.5713 18.7163C19.0243 18.8852 19.5097 18.9721 20 18.9721C20.9901 18.9721 21.9397 18.6181 22.6399 17.9879C23.34 17.3578 23.7333 16.5032 23.7333 15.6121C23.7333 14.7209 23.34 13.8663 22.6399 13.2362C21.9397 12.6061 20.9901 12.2521 20 12.2521V12.2521Z" fill="#735353"/>
</svg>
